<svg xmlns="http://www.w3.org/2000/svg" viewBox="0 0 168 64"><defs><style>.cls-1{fill:#fff;}.cls-1,.cls-2{fill-rule:evenodd;}.cls-2{fill:#e6e6e6;}</style></defs><title>grafana_enterprise_typelogo</title><g id="Camada_1-2" data-name="Camada 1"><path class="cls-1" d="M0,8.53,10.22,41h7.19L28.11,8.53H21.5L13.86,32.87,6.62,8.53ZM29,34.64c0,6,4.62,6.66,7.5,6.53,0,0,11.33-.4,13.86-.75V35.31H38c-1.29,0-2.75,0-2.75-2.31V27.94l13.14-.4V22.38l-13.14-.44V16.88c0-1.2,0-2.49,2.31-2.49H50.39V9.24c-2.84-.4-14.3-.71-14.3-.71C33,8.48,29,9.64,29,15.28V34.64ZM59.48,23.23V14h7.37c2,0,3.2.94,3.2,4.62,0,4-1.07,4.58-3.2,4.58ZM53.22,41h6.21V28.11l5.47.63L70.27,41h7L71.12,28.25c1.82-.58,5.19-1.56,5.19-9.6,0-7.77-3.77-10.12-8.88-10.12H53.22V41ZM78.6,14.26h8.8V41h6.22V14.26h9V8.53h-24v5.73Zm27,26.78h6.22V8.53h-6.22V41Zm9.35-16.44c0,9.29,1.38,17,10.57,16.66,3.73-.13,5.47-1.07,6.89-2.4L134.09,41h4.44V22.65c-1.07-.09-2.09-.09-3-.09a20.86,20.86,0,0,0-7.73,1.07v3.95h4.53V33.4a9.65,9.65,0,0,1-5.6,2c-4.57,0-5.55-2.31-5.55-10.75,0-8,.93-11,5.86-11s10.75.75,11,.75V9.59a45.26,45.26,0,0,0-12.48-1.42c-8.84,0-10.62,7-10.62,16.43Zm33.16.4c0-10.34,2.05-11,6.84-11s6.84.85,6.84,11c0,8.75-1.6,10.49-6.84,10.49-5.55,0-6.84-1.6-6.84-10.49Zm-6.22,0c0,14.79,5.07,16.22,13.06,16.22S168,39.35,168,25c0-15.23-5.37-16.69-13.06-16.69C147.48,8.31,141.88,9.77,141.88,25Z"/><path class="cls-2" d="M23.4,49.27H20.68a.14.14,0,0,1-.14-.14v-.56a.14.14,0,0,1,.14-.14H27a.14.14,0,0,1,.14.14v.56a.14.14,0,0,1-.14.14H24.29v7.5a.14.14,0,0,1-.14.14h-.61a.14.14,0,0,1-.14-.14v-7.5Zm11.33,0v2.94h4.56a.14.14,0,0,1,.14.14v.56a.15.15,0,0,1-.14.15H34.73v3h5.14a.15.15,0,0,1,.14.15v.56a.14.14,0,0,1-.14.14H34a.14.14,0,0,1-.14-.14v-8.2a.14.14,0,0,1,.14-.14h5.83a.15.15,0,0,1,.15.14v.56a.15.15,0,0,1-.15.14Zm15.93,7.78a4.21,4.21,0,0,1-4.21-4.36v0a4.26,4.26,0,0,1,4.24-4.38A4.44,4.44,0,0,1,54,49.64a.16.16,0,0,1,.05.1.18.18,0,0,1,0,.1l-.44.44a.14.14,0,0,1-.2,0,3.59,3.59,0,0,0-2.66-1.17,3.37,3.37,0,0,0-3.32,3.53v0a3.41,3.41,0,0,0,3.33,3.55A3.61,3.61,0,0,0,53.41,55a.15.15,0,0,1,.2,0l.41.4a.15.15,0,0,1,0,.2,4.44,4.44,0,0,1-3.36,1.47ZM66.81,55.3V48.57a.14.14,0,0,1,.14-.14h.59a.14.14,0,0,1,.14.14v8.2a.15.15,0,0,1-.14.14h-.46a.13.13,0,0,1-.11-.06l-5.52-7v6.88a.15.15,0,0,1-.14.14h-.59a.14.14,0,0,1-.14-.14v-8.2a.14.14,0,0,1,.14-.14h.57a.13.13,0,0,1,.11,0l5.41,6.82Zm12,1.75a4.23,4.23,0,0,1-4.25-4.36v0a4.27,4.27,0,1,1,8.53,0v0a4.26,4.26,0,0,1-4.28,4.38Zm12.09-1H95.6a.15.15,0,0,1,.14.15v.56a.14.14,0,0,1-.14.14H90.18a.15.15,0,0,1-.15-.14v-8.2a.15.15,0,0,1,.15-.14h.6a.15.15,0,0,1,.15.14v7.49Zm14.9,1a4.23,4.23,0,0,1-4.25-4.36v0a4.26,4.26,0,1,1,8.52,0v0a4.26,4.26,0,0,1-4.27,4.38Zm17.58-1.68V53.22h-2.6a.14.14,0,0,1-.14-.14v-.56a.14.14,0,0,1,.14-.14h3.33a.14.14,0,0,1,.14.14v3.16a.1.1,0,0,1,0,.1,5.06,5.06,0,0,1-3.31,1.27,4.13,4.13,0,0,1-4.26-4.36v0a4.23,4.23,0,0,1,4.19-4.38,4.43,4.43,0,0,1,3.09,1.11.13.13,0,0,1,0,.09.15.15,0,0,1,0,.11l-.39.46a.15.15,0,0,1-.2,0,3.57,3.57,0,0,0-2.55-1,3.35,3.35,0,0,0-3.24,3.53v0a3.27,3.27,0,0,0,3.37,3.56,4.09,4.09,0,0,0,2.47-.86Zm8,1.4v-8.2a.14.14,0,0,1,.14-.14h.61a.14.14,0,0,1,.14.14v8.2a.15.15,0,0,1-.14.14h-.61a.14.14,0,0,1-.14-.14Zm14.11-2.16h-4.66l-1,2.22a.16.16,0,0,1-.13.08h-.63a.12.12,0,0,1-.12-.07.12.12,0,0,1,0-.13l3.82-8.26a.13.13,0,0,1,.12-.08h.59a.14.14,0,0,1,.13.08l3.82,8.26a.15.15,0,0,1,0,.13.13.13,0,0,1-.12.07h-.67a.14.14,0,0,1-.13-.08l-1-2.22ZM78.87,56.22a3.38,3.38,0,0,0,3.34-3.53v0a3.41,3.41,0,0,0-3.37-3.55,3.36,3.36,0,0,0-3.33,3.53v0a3.4,3.4,0,0,0,3.36,3.55Zm27,0a3.37,3.37,0,0,0,3.34-3.53v0a3.41,3.41,0,0,0-3.36-3.55,3.37,3.37,0,0,0-3.34,3.53v0a3.41,3.41,0,0,0,3.36,3.55Zm35.4-2.44h3.88l-1.94-4.26Z"/></g></svg>
