<svg id="Camada_1" data-name="Camada 1" xmlns="http://www.w3.org/2000/svg" viewBox="0 0 351 365"><defs><style>.cls-1{fill:#fff;fill-rule:evenodd;}</style></defs><title>grafana_com_auth_icon</title><path class="cls-1" d="M235.3,197.12A200.62,200.62,0,0,1,233.94,169c-57.13.05-109.18,10.77-171.39.15q1.16,3.34,2.39,6.65C95.35,257.44,145.93,215.88,235.3,197.12Z"/><path class="cls-1" d="M247.54,246.06c-.33-.83-.65-1.67-1-2.51a201.86,201.86,0,0,1-7.51-25c-54.86,11.08-76.3,36-132.83,34.56C148.8,312.09,176.64,282.62,247.54,246.06Z"/><path class="cls-1" d="M280.73,302.59c-19,19.06-23,34.13-50.06,52.69,49.33,20.92,44.47,7.45,70.76-34.43A162.63,162.63,0,0,1,280.73,302.59Z"/><path class="cls-1" d="M271.12,290a179.13,179.13,0,0,1-14.54-23.89c-33.72,15.62-51.66,39.21-90.38,50.37C204.48,347.49,217.32,336.8,271.12,290Z"/><path class="cls-1" d="M235.59,147.38A204.81,204.81,0,0,1,241.1,120C175.58,102.93,99,98.81,44.52,68.84,46.62,176,125.66,142.21,235.59,147.38Z"/><path class="cls-1" d="M263.21,227.45a180.81,180.81,0,0,1,7.32-97.07A189.86,189.86,0,0,1,282.91,103L50.71,0c-13,67.81,158.74,88.13,213.89,106l-3.33,12h0A177.42,177.42,0,0,0,263.21,227.45Z"/></svg>
