<svg id="Camada_1" data-name="Camada 1" xmlns="http://www.w3.org/2000/svg" viewBox="0 0 16 16"><defs><style>.cls-1{fill-rule:evenodd;}</style></defs><title>grafana_mask_icon</title><path class="cls-1" d="M10.73,8.64a8.45,8.45,0,0,1-.06-1.23c-2.5,0-4.78.47-7.51,0l.1.3C4.6,11.28,6.81,9.46,10.73,8.64Z"/><path class="cls-1" d="M11.27,10.79a.76.76,0,0,1,0-.11,7.3,7.3,0,0,1-.33-1.1c-2.41.49-3.35,1.58-5.83,1.52C6.94,13.68,8.16,12.39,11.27,10.79Z"/><path class="cls-1" d="M12.72,13.26c-.83.84-1,1.5-2.19,2.31,2.16.92,2,.33,3.1-1.51A6.86,6.86,0,0,1,12.72,13.26Z"/><path class="cls-1" d="M12.3,12.71a8,8,0,0,1-.64-1.05c-1.47.69-2.26,1.72-4,2.21C9.38,15.23,9.94,14.76,12.3,12.71Z"/><path class="cls-1" d="M10.74,6.46A9.83,9.83,0,0,1,11,5.26C8.11,4.51,4.76,4.33,2.37,3,2.46,7.71,5.93,6.23,10.74,6.46Z"/><path class="cls-1" d="M12,10a7.81,7.81,0,0,1,.32-4.25,7.21,7.21,0,0,1,.54-1.2L2.64,0C2.07,3,9.6,3.86,12,4.65l-.15.53h0A7.76,7.76,0,0,0,12,10Z"/></svg>
